<?xml version="1.0" encoding="UTF-8"?>
<svg viewBox="0 0 361.88 361.88" xmlns="http://www.w3.org/2000/svg">
 <defs>
  <filter id="c" x="-.11412" y="-.40527" width="1.2282" height="1.8105" color-interpolation-filters="sRGB">
   <feGaussianBlur stdDeviation="10.302904"/>
  </filter>
  <linearGradient id="d" x1=".23178" x2=".50062" y1="1.0063" y2="-.00628">
   <stop stop-color="#00d100" offset="0"/>
   <stop stop-color="#009e00" offset="1"/>
  </linearGradient>
 </defs>
 <rect x="-1.9997" y="-.000251" width="361.88" height="361.88" fill="none"/>
 <g stroke="#000">
  <g stroke-linejoin="round">
   <path d="m125.49 302.1c164.71-27.886 207.81 44.152 82.074 53.661-125.74 9.5093-205.62-53.653-82.074-53.661z" filter="url(#c)" opacity=".591" stroke-linecap="square" stroke-width=".703"/>
   <g stroke-width="1.302">
    <path d="m113.38 108.3c164.26-95.944 207.24 151.9 81.847 184.62-125.39 32.717-205.05-184.59-81.847-184.62z" fill="#7f003f" opacity=".73" stroke-linecap="square"/>
    <g stroke-linecap="round">
     <path d="m140.35 9.7061c10.99 9.4231 40.132 19.429 78.862 17.498 25.83-1.2882 55.694-15.403 80.647 15.52-2.3659 13.934-8.6269 61.921-40.158 31.682-3.1244-2.9964-43.309-13.775-59.422-3.5759-4.7812-1.9578-9.9167-3.2958-17.148-0.96567-10.998 15.991-12.703 29.504-14.646 43.081l-6.9756 0.2325c5.0745-13.761 7.3514-27.522 15.307-41.284-3.099 0.32904-4.1499-5.5112-7.2261-4.9822-27.569 4.7408-70.691-47.806-29.24-57.206z" fill="url(#d)"/>
     <g fill="none">
      <path d="m216.62 28.658c-9.1598 3.9534-16.633 7.694-38.37 44.759"/>
      <path d="m164.34 22.64c-0.504 8.3362 12.803 8.462 25.973 30.396"/>
      <path d="m189 27.456c4.844 5.3134 11.389 6.6682 11.771 12.558"/>
      <path d="m150.23 35.03c-0.504 9.9638 21.871 9.6184 31.089 33.18"/>
      <path d="m274.01 55.199c-9.2619 5.0809-58.144-11.774-79.22-6.3484"/>
      <path d="m113.54 108.42c25.953-2.9832 26.735 26.154 47.366 9.1752"/>
      <path d="m153.83 110.89c5.7293-6.6004 5.0324 12.507 25.663-4.4714"/>
     </g>
    </g>
   </g>
  </g>
 </g>
</svg>
