<?xml version="1.0" encoding="UTF-8"?>
<svg viewBox="0 0 361.88144 361.88144" xmlns="http://www.w3.org/2000/svg">
 <defs>
  <filter id="c" x="-.11412" y="-.40527" width="1.2282" height="1.8106">
   <feGaussianBlur stdDeviation="10.3029"/>
  </filter>
  <linearGradient id="a" x1="320.31" x2="236.48" y1="313.46" y2="123.01" gradientUnits="userSpaceOnUse">
   <stop stop-color="#3e0057" offset="0"/>
   <stop stop-color="#7e00b2" offset="1"/>
  </linearGradient>
  <linearGradient id="b" x1="287.09" x2="334.65" y1="130.36" y2="25.588" gradientUnits="userSpaceOnUse">
   <stop stop-color="#00d100" offset="0"/>
   <stop stop-color="#009e00" offset="1"/>
  </linearGradient>
 </defs>
 <g transform="translate(-128.27 -37.533)">
  <g transform="translate(7.1429 40)" stroke="#000" stroke-linejoin="round">
   <path d="m260.62 274.63c164.71-27.886 207.81 44.152 82.074 53.661s-205.62-53.653-82.074-53.661z" filter="url(#c)" opacity=".5914" stroke-linecap="square" stroke-width=".70297"/>
   <path d="m236.51 124.83c164.26-95.944 207.24 151.9 81.847 184.62s-205.05-184.59-81.847-184.62z" fill="url(#a)" stroke-linecap="square" stroke-width="1.3021"/>
   <path d="m263.48 26.239c10.99 9.4231 40.132 19.429 78.862 17.498 25.83-1.2882 55.694-15.403 80.647 15.52-2.3659 13.934-8.6269 61.921-40.158 31.682-3.1244-2.9964-43.309-13.775-59.422-3.5759-4.7812-1.9578-9.9167-3.2958-17.148-0.96567-10.998 15.991-12.703 29.504-14.646 43.081l-6.9756 0.23252c5.0745-13.761 7.3514-27.522 15.307-41.284-3.099 0.32903-4.1499-5.5112-7.2262-4.9822-27.569 4.7408-70.691-47.806-29.24-57.206z" fill="url(#b)" stroke-linecap="round" stroke-width="1.3021"/>
   <g fill="none" stroke-linecap="round" stroke-width="1.3021">
    <path d="m339.75 45.191c-9.1598 3.9534-16.633 7.694-38.37 44.759"/>
    <path d="m287.47 39.173c-0.50399 8.3362 12.803 8.462 25.973 30.396"/>
    <path d="m312.13 43.99c4.844 5.3134 11.389 6.6682 11.771 12.558"/>
    <path d="m273.36 51.563c-0.50399 9.9638 21.871 9.6184 31.089 33.18"/>
    <path d="m397.14 71.733c-9.2619 5.0809-58.144-11.773-79.22-6.3484"/>
   </g>
   <path d="m236.67 124.96c25.953-2.9832 26.735 26.154 47.366 9.1752" fill="none" stroke-linecap="round" stroke-width="1.3021"/>
   <path d="m276.96 127.42c5.7294-6.6004 5.0324 12.507 25.663-4.4714" fill="none" stroke-linecap="round" stroke-width="1.3021"/>
  </g>
 </g>
</svg>
